<svg viewBox="0 0 100 76" xmlns="http://www.w3.org/2000/svg" fill-rule="evenodd" clip-rule="evenodd" stroke-linejoin="round" stroke-miterlimit="1.414">
    <path fill="#151519" d="M0 0h100v76H0z"/>
    <path d="M90 38.405C82.045 56.173 67.21 68.4 50 68.4c-16.974 0-31.986-12.227-40-29.995C18.014 19.826 33.026 7.6 50 7.6c17.21 0 32.045 12.226 40 30.805zM66 40.4C64.87 48.058 58.174 54 50 54c-8.799 0-16-7.164-16-16 0-8.837 7.201-16 16-16 .385 0 .684.008.8 0-.401 1.51-.716 3.119-.8 4.8.084 7.51 6.385 13.6 14.4 13.6.645 0 1.126-.026 1.6 0z" fill="#fffdf3"/>
</svg>
