<svg viewBox="0 0 100 76" xmlns="http://www.w3.org/2000/svg" fill-rule="evenodd" clip-rule="evenodd" stroke-linejoin="round" stroke-miterlimit="1.414">
    <path d="M100 38.539c-9.944 22.21-28.487 37.494-50 37.494-21.218 0-39.983-15.284-50-37.494C10.017 15.316 28.782.033 50 .033c21.513 0 40.056 15.283 50 38.506zm-30 2.494c-1.413 9.572-9.782 17-20 17-10.999 0-20-8.955-20-20 0-11.046 9.001-20 20-20 .481 0 .855.01 1 0-.501 1.887-.895 3.899-1 6 .105 9.388 7.981 17 18 17 .806 0 1.407-.033 2 0z" fill="#fffdf3"/>
</svg>
